<?xml version="1.0" encoding="utf-8"?>
<!-- Generator: Adobe Illustrator 25.0.1, SVG Export Plug-In . SVG Version: 6.00 Build 0)  -->
<svg version="1.1" id="Camada_1" xmlns="http://www.w3.org/2000/svg" xmlns:xlink="http://www.w3.org/1999/xlink" x="0px" y="0px"
	 viewBox="0 0 67.5 69.8" style="enable-background:new 0 0 67.5 69.8;" xml:space="preserve">
<g id="Camada_2_1_">
	<g id="Camada_1-2">
		<g id="Camada_2-2">
			<g id="Camada_1-2-2">
				<path d="M47.5,24.2c-0.1-0.5-0.5-0.9-1-1c-5-1.2-5.5-1.8-6.6-7.5c-0.1-0.8-0.8-1.3-1.6-1.1c-0.6,0.1-1,0.6-1.1,1.1
					c-1.1,5.6-1.7,6.3-6.6,7.5c-0.8,0.2-1.2,0.9-1,1.7c0.1,0.5,0.5,0.9,1,1c5,1.2,5.5,1.8,6.6,7.5c0.2,0.8,0.9,1.2,1.7,1.1
					c0.5-0.1,1-0.5,1.1-1.1c1.1-5.6,1.7-6.3,6.6-7.5C47.3,25.7,47.7,24.9,47.5,24.2C47.5,24.2,47.5,24.2,47.5,24.2z M38.5,27.9
					L38.5,27.9L38.5,27.9L38.5,27.9c-0.6-1.5-1.8-2.7-3.3-3.4c1.5-0.7,2.6-1.9,3.3-3.4c0.6,1.5,1.8,2.7,3.3,3.4
					C40.3,25.2,39.1,26.4,38.5,27.9L38.5,27.9z"/>
				<path d="M53,24.9c0-0.1,0-0.1,0-0.2v-7.9c-0.3-3.2-1.3-6.4-2.8-9.3c-1.9-3.7-5.3-6.3-9.3-7.2C39.8,0.1,38.7,0,37.5,0
					c-3.2,0.1-6.3,1-9.1,2.6c-0.6,0.3-1.2,0.6-1.8,0.8C26,3.3,25.4,3,24.8,2.6C22.1,1,18.9,0.1,15.8,0c-1.1,0-2.3,0.1-3.4,0.4
					C4.4,2.3,0,10,0,22.1c0.1,5.6,1.8,11.1,4.9,15.8c0,2.3-0.1,11.8,1.1,18.7c1.5,8.4,4.5,13.1,8.4,13.1c5,0,8.1-15.2,8.1-15.4
					c1-5.7,2.9-9,4.1-9s3,3.4,4.1,9c0,0.2,3.1,15.4,8.1,15.4c3.8,0,6.9-4.8,8.4-13.1c1.2-6.9,1.2-16.4,1.1-18.7
					c1.4-2.1,2.5-4.3,3.3-6.7c0.7-1.9,1.1-4,1.4-6l0,0L53,24.9z M45.7,36.5c-0.2,0.3-0.3,0.6-0.3,1c0,0.1,0.3,11.2-1.1,18.6
					c-1.3,7.4-3.8,10.6-5.5,10.6c-1.7-0.6-4.6-9.6-5.2-12.9c-0.8-4.3-2.8-11.5-7-11.5s-6.2,7.2-7,11.5c-0.6,3.4-3.6,12.4-5.2,12.9
					c-1.7,0-4.1-3.3-5.4-10.7S7.9,37.6,7.9,37.4c0-0.4-0.1-0.7-0.3-1C4.7,32.2,3.1,27.2,3,22.1C3,14.6,4.7,5.3,13,3.3
					C13.9,3.1,14.8,3,15.8,3c2.7,0.1,5.4,0.9,7.7,2.3c1,0.6,2,1,3.2,1.1c1.1-0.1,2.2-0.5,3.2-1.1c2.3-1.4,5-2.2,7.7-2.3
					c0.9,0,1.8,0.1,2.7,0.3c7.4,1.7,9.6,9.4,9.9,16.4c0,0.8,0.1,1.6,0.1,2.3c0,0.5,0,0.9-0.1,1.4C49.9,28.1,48.3,32.6,45.7,36.5
					L45.7,36.5z"/>
			</g>
			<path d="M66.2,1.6h-9.5c-1.1-1.6-3.3-2.1-4.9-1c-1,0.7-1.6,1.8-1.6,3v16.2c0,0.8,0.1,1.6,0.1,2.3c0,0.5,0,0.9-0.1,1.4v1.3
				c0,0.3,0,0.6,0.1,0.8l1.4,5.6l1.7,6.8v28.2c0.2,1.9,1.9,3.3,3.9,3.1c1.6-0.2,2.9-1.5,3.1-3.1V37.6c0-0.3,0-0.6-0.1-0.8l-3-12.4
				V24h9c0.8,0,1.4-0.6,1.4-1.4V3c0-0.8-0.6-1.4-1.3-1.4C66.2,1.6,66.2,1.6,66.2,1.6z M57.6,37.5c0,0.1,0,0.1,0,0.2v28.6
				c0,0.4-0.3,0.8-0.8,0.8c-0.4,0-0.7-0.3-0.7-0.8V37.9L53,25.2l0,0v-0.3c0-0.1,0-0.1,0-0.2V3.5c0-0.4,0.3-0.7,0.8-0.7
				c0.4,0,0.7,0.3,0.7,0.6v19.3c0,0.1,0,0.2,0,0.3v1.6L57.6,37.5z M64.8,21.3h-7.6v-2.1h7.6V21.3z M64.8,16.3h-7.6v-2.2h7.6V16.3z
				 M64.8,11.4h-7.6V9.3h7.6V11.4z M64.8,6.5h-7.6V4.3h7.6V6.5z"/>
		</g>
	</g>
</g>
</svg>
