<svg xmlns="http://www.w3.org/2000/svg" viewBox="0 0 53.25 69.74"><g id="Camada_2" data-name="Camada 2"><g id="Camada_1-2" data-name="Camada 1"><path d="M53.25,22.06C53.25,10,48.87,2.26,40.9.4A14.47,14.47,0,0,0,37.51,0a19.41,19.41,0,0,0-9.07,2.64,11.3,11.3,0,0,1-1.79.83,9.65,9.65,0,0,1-1.84-.83A19.41,19.41,0,0,0,15.74,0a14.6,14.6,0,0,0-3.39.4C4.39,2.26,0,10,0,22.06A28.92,28.92,0,0,0,4.91,37.88C4.87,40.19,4.8,49.69,6,56.6c1.49,8.35,4.55,13.14,8.4,13.14,5,0,8.11-15.23,8.13-15.39,1-5.66,2.89-9.05,4.07-9.05s3,3.39,4.06,9.05c0,.15,3.14,15.39,8.14,15.39,1.29,0,3.21-.56,5-3.26,1.87-2.86,2.89-7,3.41-9.88,1.23-6.91,1.16-16.41,1.13-18.72A29.06,29.06,0,0,0,53.25,22.06Zm-7.6,14.43a1.51,1.51,0,0,0-.31,1c0,.11.26,11.17-1.07,18.62a24.62,24.62,0,0,1-3,8.76c-.56.86-1.44,1.89-2.44,1.91-1.69-.57-4.6-9.55-5.22-12.93-.79-4.3-2.76-11.51-7-11.51s-6.23,7.21-7,11.51C19,57.2,16.06,66.24,14.43,66.74c-1.71,0-4.14-3.34-5.45-10.67S7.91,37.56,7.92,37.45a1.59,1.59,0,0,0-.31-1A26.13,26.13,0,0,1,3,22.06C3,14.58,4.74,5.26,13,3.32A11.92,11.92,0,0,1,15.74,3a16.65,16.65,0,0,1,7.7,2.31,15,15,0,0,0,2.12,1,.88.88,0,0,0,.12.19,46.71,46.71,0,0,1,4,4.66l-4.54,1.47a1.51,1.51,0,0,0-1,1,1.49,1.49,0,0,0,.24,1.35l5.19,6.91-5.42,6.94a1.5,1.5,0,0,0,2.37,1.85l6.12-7.85a1.49,1.49,0,0,0,0-1.82l-4.62-6.15,4.46-1.45a1.51,1.51,0,0,0,1-.91,1.49,1.49,0,0,0-.13-1.3,39.63,39.63,0,0,0-4.28-5.45l.73-.37A16.65,16.65,0,0,1,37.51,3a11.79,11.79,0,0,1,2.7.32c8.3,1.94,10,11.26,10,18.74A26.16,26.16,0,0,1,45.65,36.49Z"/></g></g></svg>