<svg xmlns="http://www.w3.org/2000/svg" viewBox="0 0 53.25 69.74"><g id="Camada_2" data-name="Camada 2"><g id="Camada_1-2" data-name="Camada 1"><path d="M53.25,22.06C53.25,10,48.87,2.26,40.9.4A14.47,14.47,0,0,0,37.51,0a19.45,19.45,0,0,0-9.07,2.64,11.3,11.3,0,0,1-1.79.83,9.36,9.36,0,0,1-1.83-.83A19.45,19.45,0,0,0,15.75,0a14.47,14.47,0,0,0-3.39.4C4.39,2.26,0,10,0,22.06A28.92,28.92,0,0,0,4.91,37.88C4.87,40.19,4.8,49.69,6,56.6c1.49,8.35,4.55,13.14,8.4,13.14,5,0,8.1-15.23,8.13-15.39,1-5.66,2.89-9.05,4.07-9.05s3,3.39,4.06,9.05c0,.15,3.14,15.39,8.14,15.39,3.84,0,6.9-4.79,8.39-13.14,1.23-6.91,1.16-16.41,1.13-18.72A29.06,29.06,0,0,0,53.25,22.06Zm-7.6,14.43a1.51,1.51,0,0,0-.31,1c0,.11.26,11.18-1.07,18.62S40.56,66.7,38.86,66.74c-1.69-.57-4.6-9.56-5.22-12.93-.79-4.3-2.76-11.51-7-11.51s-6.23,7.21-7,11.51C19,57.2,16.06,66.24,14.43,66.74c-1.71,0-4.14-3.34-5.45-10.67S7.91,37.56,7.91,37.45a1.47,1.47,0,0,0-.31-1A26.25,26.25,0,0,1,3,22.06C3,14.58,4.74,5.26,13,3.32A11.92,11.92,0,0,1,15.74,3a16.53,16.53,0,0,1,7.7,2.31,7.57,7.57,0,0,0,3.19,1.15,7.58,7.58,0,0,0,3.18-1.15A16.53,16.53,0,0,1,37.51,3a11.26,11.26,0,0,1,2.7.32c8.3,1.94,10,11.26,10,18.74A26.16,26.16,0,0,1,45.65,36.49Z"/><path d="M16.64,11.48A7.47,7.47,0,0,0,9,18.74,7.46,7.46,0,0,0,16.64,26a7.46,7.46,0,0,0,7.64-7.25A7.47,7.47,0,0,0,16.64,11.48Zm0,11.51A4.47,4.47,0,0,1,12,18.74a4.47,4.47,0,0,1,4.65-4.26,4.47,4.47,0,0,1,4.64,4.26A4.46,4.46,0,0,1,16.64,23Z"/><path d="M32.39,19.05a5.59,5.59,0,0,0-5.71,5.44,5.71,5.71,0,0,0,11.41,0A5.58,5.58,0,0,0,32.39,19.05Zm0,7.88a2.59,2.59,0,0,1-2.71-2.44,2.72,2.72,0,0,1,5.41,0A2.59,2.59,0,0,1,32.39,26.93Z"/><path d="M39.36,9.23a4.8,4.8,0,0,0-4.89,4.68,4.9,4.9,0,0,0,9.79,0A4.8,4.8,0,0,0,39.36,9.23Zm0,6.36a1.8,1.8,0,0,1-1.89-1.68,1.91,1.91,0,0,1,3.79,0A1.8,1.8,0,0,1,39.36,15.59Z"/></g></g></svg>