<?xml version="1.0" encoding="utf-8"?>
<!-- Generator: Adobe Illustrator 25.0.1, SVG Export Plug-In . SVG Version: 6.00 Build 0)  -->
<svg version="1.1" id="Camada_1" xmlns="http://www.w3.org/2000/svg" xmlns:xlink="http://www.w3.org/1999/xlink" x="0px" y="0px"
	 viewBox="0 0 67.5 69.7" style="enable-background:new 0 0 67.5 69.7;" xml:space="preserve">
<g id="Camada_2_1_">
	<g id="Camada_1-2">
		<path d="M60.4,22.1C60.4,10,56,2.3,48,0.4C46.9,0.1,45.8,0,44.6,0c-3.2,0.1-6.3,1-9.1,2.6C35,3,34.4,3.2,33.8,3.5
			C33.2,3.3,32.5,3,32,2.6C29.2,1,26.1,0.1,22.9,0c-1.1,0-2.3,0.1-3.4,0.4C11.5,2.3,7.1,10,7.1,22.1c0.1,5.6,1.8,11.1,4.9,15.8
			c0,2.3-0.1,11.8,1.1,18.7c1.5,8.3,4.6,13.1,8.4,13.1c5,0,8.1-15.2,8.1-15.4c1-5.7,2.9-9,4.1-9s3,3.4,4.1,9
			c0,0.2,3.2,15.4,8.1,15.4c3.8,0,6.9-4.8,8.4-13.1c1.2-6.9,1.2-16.4,1.1-18.7C58.6,33.2,60.3,27.7,60.4,22.1z M21.6,66.7
			c-1.7,0-4.1-3.3-5.4-10.7c-0.8-5.5-1.2-11-1.1-16.5c0.7,0.3,0.9,0.7,1.3,1.4c0.6,1.3,1.7,2.3,3.1,2.8c1.4,0.4,2.9,0.3,4.2-0.4
			c0.6-0.4,1.3-0.5,2-0.3c0.8,0.2,1,0.7,1.5,1.4c0.4,0.8,1,1.6,1.8,2.1c-1,2.3-1.7,4.7-2.2,7.2C26.1,57.2,23.2,66.2,21.6,66.7z
			 M33.8,42.3c-1.3,0-2.5,0.7-3.3,1.7c-0.3-0.3-0.6-0.6-0.8-1c-1.2-2.6-4.3-3.8-6.9-2.6c-0.1,0.1-0.3,0.1-0.4,0.2
			c-0.6,0.4-1.3,0.5-2,0.3c-0.8-0.3-1-0.7-1.4-1.4c-0.6-1.3-1.7-2.3-3.1-2.8c-0.3-0.1-0.7-0.1-1,0c0-0.1-0.1-0.1-0.1-0.2
			c-2.9-4.3-4.5-9.3-4.6-14.4c0-7.5,1.7-16.8,10-18.7C21,3.1,22,3,22.9,3c2.7,0.1,5.4,0.9,7.7,2.3c1,0.6,2,1,3.2,1.2
			c1.1-0.1,2.2-0.5,3.2-1.2c2.3-1.4,5-2.2,7.7-2.3c0.9,0,1.8,0.1,2.7,0.3c8.3,1.9,10,11.3,10,18.7c-0.1,5.1-1.6,10-4.5,14.2
			l-0.4-0.2c-2.2-1.2-5-0.3-6.2,1.9c-0.2,0.3-0.3,0.6-0.4,1c-0.3,0.8-0.4,1.1-1,1.4c-0.5,0.2-0.9,0.1-1.7-0.2
			c-2.2-1.2-5-0.4-6.2,1.8c-0.2,0.3-0.3,0.7-0.4,1l-0.2,0.4C35.7,42.7,34.7,42.3,33.8,42.3z M51.4,56.1c-1.3,7.3-3.7,10.6-5.4,10.7
			c-1.7-0.6-4.6-9.5-5.2-12.9c-0.4-2.7-1.3-5.4-2.5-7.9l0.1-0.1c0.4-0.5,0.8-1.2,1-1.8c0.3-0.8,0.5-1.1,1-1.3
			c0.6-0.2,0.9-0.1,1.7,0.2c2.2,1.2,5,0.4,6.2-1.8c0.2-0.3,0.3-0.7,0.4-1c0.3-0.8,0.5-1.1,1-1.4s0.9-0.1,1.7,0.2
			c0.4,0.2,0.8,0.3,1.2,0.4C52.6,44.9,52.2,50.5,51.4,56.1z"/>
		<circle cx="18.4" cy="47.9" r="1.6"/>
		<circle cx="23.7" cy="51.2" r="1.6"/>
		<circle cx="20" cy="58.2" r="1.6"/>
		<circle cx="47.7" cy="47.9" r="1.6"/>
		<circle cx="46" cy="55.9" r="1.6"/>
	</g>
</g>
</svg>
