<?xml version="1.0" encoding="utf-8"?>
<!-- Generator: Adobe Illustrator 25.0.1, SVG Export Plug-In . SVG Version: 6.00 Build 0)  -->
<svg version="1.1" id="Camada_1" xmlns="http://www.w3.org/2000/svg" xmlns:xlink="http://www.w3.org/1999/xlink" x="0px" y="0px"
	 viewBox="0 0 67.5 69.7" style="enable-background:new 0 0 67.5 69.7;" xml:space="preserve">
<g id="Camada_2_1_">
	<g id="Camada_1-2">
		<path d="M47,0.4C46,0.1,45,0,44,0c-3,0.1-5.9,0.9-8.5,2.4c-0.5,0.3-1.1,0.5-1.6,0.7c-0.6-0.2-1.2-0.4-1.7-0.7
			c-2.6-1.4-5.6-2.2-8.6-2.4c-1,0-2,0.1-3,0.4c-7,1.7-10.7,8.5-10.7,19.5c0,5.2,1.6,10.3,4.5,14.6c0.1,0.2,0.3,0.3,0.5,0.4
			c1.2,0.5,2.4,0.8,3.6,0.9c-0.1,0.1-0.1,0.3-0.1,0.5v1.8c0,2,1.7,3.6,3.7,3.5h0.7v3.8l-1,0.1c-0.8,0-1.4,0.7-1.4,1.5
			s0.7,1.4,1.5,1.4H22l0.7-0.1v3l-1,0.1c-0.8,0-1.4,0.7-1.4,1.5c0,0.8,0.7,1.4,1.5,1.4H22l0.7-0.1v3l-1,0.1c-0.8,0-1.4,0.7-1.4,1.5
			c0,0.8,0.7,1.4,1.5,1.4H22l0.8-0.1c0.2,0.8,0.6,1.5,1.1,2.1l8,6.7c0.5,0.4,1.1,0.7,1.8,0.7c0.6,0,1.2-0.2,1.6-0.6l8.3-6.8
			c0.7-0.8,1.1-1.8,1.2-2.8v-1.6l1-0.1c0.8-0.1,1.4-0.8,1.3-1.6s-0.8-1.4-1.6-1.3l0,0L44.9,55v-3l1-0.2c0.8-0.2,1.2-1,1-1.8
			c-0.2-0.6-0.7-1-1.3-1.1h-0.7v-3l1-0.1c0.8-0.1,1.4-0.8,1.3-1.6c-0.1-0.8-0.8-1.4-1.6-1.3l-0.7,0.1v-1.4h0.6c2,0,3.7-1.5,3.7-3.5
			v-1.8c0-0.2,0-0.3-0.1-0.5c1.2-0.1,2.5-0.4,3.6-0.9c0.2-0.1,0.3-0.2,0.5-0.4c2.9-4.3,4.5-9.4,4.5-14.6C57.7,8.8,54,2.1,47,0.4z
			 M42,59.5c0,0.2-0.1,0.4-0.2,0.6l-8.1,6.6l-7.8-6.5c-0.1-0.1-0.1-0.1-0.1-0.2l16.2-1.7L42,59.5z M42,55.3l-16.4,1.8V54l16.3-1.8
			L42,55.3z M42,49.3l-16.4,1.8v-3.1l16.3-1.8L42,49.3z M42,43.3l-16.4,1.9v-3.5h16.3L42,43.3z M46.3,36.2v1.9
			c-0.1,0.4-0.4,0.7-0.8,0.6H22.1c-0.4,0-0.7-0.3-0.8-0.6v-1.8c0,0,0-0.1,0-0.1c2.8,0.3,6.9,0.5,12.5,0.5
			C38,36.8,42.2,36.6,46.3,36.2C46.3,36.2,46.3,36.3,46.3,36.2L46.3,36.2z M51.1,32.4c-1,0.3-5.2,1.4-17.3,1.4s-16.3-1-17.3-1.4
			c-2.4-3.7-3.7-8.1-3.8-12.5c0-6.7,1.5-15,8.5-16.7C22,3,22.8,2.9,23.6,2.9c2.6,0.1,5,0.9,7.3,2.1c0.9,0.5,1.9,0.9,2.9,1
			c1-0.1,2-0.5,2.9-1c2.2-1.2,4.7-2,7.3-2.1c0.8,0,1.6,0.1,2.3,0.3c7,1.7,8.5,10,8.5,16.7C54.7,24.3,53.5,28.7,51.1,32.4L51.1,32.4z
			"/>
	</g>
</g>
</svg>
