<svg xmlns="http://www.w3.org/2000/svg" viewBox="0 0 13.84 69.74"><g id="Camada_2" data-name="Camada 2"><g id="Camada_1-2" data-name="Camada 1"><path d="M10.73,30.74h0V20.51a1.37,1.37,0,0,0-.35-.92l-7.21-8,7.27-9.39A1.37,1.37,0,0,0,8.26.53l-8,10.3a1.38,1.38,0,0,0,.06,1.76L8,21v9.7H7.9a3.12,3.12,0,0,0-3.11,3.12V66.63A3.11,3.11,0,0,0,7.9,69.74h2.83a3.11,3.11,0,0,0,3.11-3.11V33.85A3.11,3.11,0,0,0,10.73,30.74ZM7.9,33.49h2.83a.37.37,0,0,1,.37.36v3.22H7.53V33.85A.37.37,0,0,1,7.9,33.49ZM10.73,67H7.9a.36.36,0,0,1-.36-.36V39.82H11.1V66.63A.37.37,0,0,1,10.73,67Z"/></g></g></svg>