<?xml version="1.0" encoding="utf-8"?>
<!-- Generator: Adobe Illustrator 25.0.1, SVG Export Plug-In . SVG Version: 6.00 Build 0)  -->
<svg version="1.1" id="Camada_1" xmlns="http://www.w3.org/2000/svg" xmlns:xlink="http://www.w3.org/1999/xlink" x="0px" y="0px"
	 viewBox="0 0 67.5 69.7" style="enable-background:new 0 0 67.5 69.7;" xml:space="preserve">
<g id="Camada_2_1_">
	<g id="Camada_1-2">
		<path d="M42.4,26L42.4,26c0.1-0.4,0.1-0.9,0.1-1.3c0-0.9-0.1-1.7-0.3-2.6c2.1-3.1,3.4-6.7,3.6-10.4c0.2-3.4-0.5-6.8-2-9.9
			C43.4,0.7,42.4,0,41.3,0c-1.7,0.1-3.1,1.9-4.5,5.4c-1.2,3.3-2.5,7.7-3,9.5c-0.5-1.8-1.8-6.1-3-9.5C29.5,1.9,27.9,0,26.3,0
			c-1.1,0-2.1,0.8-2.5,1.8c-1.5,3.1-2.2,6.5-2,9.9c0.3,3.7,1.5,7.3,3.6,10.4c-0.2,0.8-0.4,1.7-0.4,2.5c0,0.4,0,0.9,0.1,1.3l0,0
			c-5,5-8,14.3-8,25c0,5.1,0.7,10.1,2.2,15c0.9,2.9,4.1,4.5,7,3.5c1.4-0.5,2.6-1.5,3.2-2.8c0.7-1.3,0.8-2.8,0.3-4.2
			c-1.2-3.7-1.7-7.6-1.7-11.5c0-9.8,3.1-15.9,5.1-17.5c0,0,0.1-0.1,0.1-0.1h0.4h0.4c0,0,0.1,0.1,0.1,0.1c2,1.6,5.1,7.7,5.1,17.5
			c0,3.9-0.5,7.8-1.7,11.5c-1,2.9,0.6,6,3.5,7c0,0,0,0,0,0c0.6,0.2,1.1,0.3,1.7,0.3c2.4,0,4.5-1.6,5.2-3.9c1.5-4.9,2.3-9.9,2.2-15
			C50.4,40.3,47.4,31,42.4,26z M39.6,6.4c0.4-1.1,0.9-2.2,1.6-3.2c1.3,2.6,1.8,5.5,1.7,8.3c-0.2,2.7-1,5.3-2.3,7.6
			c-1.1-1.3-2.5-2.3-4.1-2.8C36.8,15.2,38.2,10.1,39.6,6.4z M24.7,11.6c-0.2-2.9,0.4-5.7,1.7-8.3c0.7,1,1.2,2.1,1.6,3.2
			c1.3,3.7,2.8,8.8,3.1,9.9c-1.6,0.5-3,1.5-4.1,2.8C25.7,16.8,24.9,14.2,24.7,11.6z M25.3,51c0,4.2,0.6,8.4,1.9,12.4
			c0.5,1.4-0.3,2.8-1.7,3.3c0,0,0,0,0,0c-0.7,0.2-1.4,0.2-2-0.1c-0.6-0.3-1.1-0.9-1.3-1.5c-1.4-4.5-2.1-9.3-2.1-14
			c0-9.2,2.3-17.2,6.2-21.9c0.9,1.5,2.3,2.7,3.9,3.4C27.6,35.8,25.3,42.3,25.3,51z M28,24.7c0-3.2,2.6-5.8,5.8-5.8
			c3.2,0,5.8,2.6,5.8,5.8s-2.6,5.8-5.8,5.8C30.6,30.5,28,27.9,28,24.7C28,24.7,28,24.7,28,24.7L28,24.7z M45.4,65
			c-0.5,1.4-1.9,2.1-3.3,1.7c-1.4-0.5-2.1-1.9-1.7-3.3c1.3-4,1.9-8.2,1.9-12.4c0-8.7-2.3-15.2-4.8-18.4c1.6-0.7,2.9-2,3.8-3.5
			c3.9,4.7,6.2,12.7,6.2,21.9C47.5,55.7,46.8,60.5,45.4,65z"/>
		<circle cx="33.8" cy="24.6" r="1.8"/>
	</g>
</g>
</svg>
