<?xml version="1.0" encoding="utf-8"?>
<!-- Generator: Adobe Illustrator 25.0.1, SVG Export Plug-In . SVG Version: 6.00 Build 0)  -->
<svg version="1.1" id="Camada_1" xmlns="http://www.w3.org/2000/svg" xmlns:xlink="http://www.w3.org/1999/xlink" x="0px" y="0px"
	 viewBox="0 0 67.5 69.7" style="enable-background:new 0 0 67.5 69.7;" xml:space="preserve">
<path d="M48.1,0.4C46.9,0.1,45.8,0,44.7,0c-3.2,0.1-6.3,1-9.1,2.6C35,3,34.4,3.2,33.8,3.5C33.2,3.3,32.6,3,32,2.6
	C29.2,1,26.1,0.1,22.9,0c-1.1,0-2.3,0.1-3.4,0.4C11.5,2.3,7.2,10,7.2,22.1c0.1,5.6,1.8,11.1,4.9,15.8c0,2.3-0.1,11.8,1.1,18.7
	c1.5,8.3,4.6,13.1,8.4,13.1c5,0,8.1-15.2,8.1-15.4c1-5.7,2.9-9,4.1-9s3,3.4,4.1,9c0,0.2,3.1,15.4,8.1,15.4c3.8,0,6.9-4.8,8.4-13.1
	c1.2-6.9,1.2-16.4,1.1-18.7c3.1-4.7,4.8-10.2,4.9-15.8C60.4,10,56,2.3,48.1,0.4z M52.8,36.5c-0.2,0.3-0.3,0.6-0.3,1
	c0,0.1,0.3,11.2-1.1,18.6S47.7,66.7,46,66.7c-1.7-0.6-4.6-9.6-5.2-12.9c-0.8-4.3-2.8-11.5-7-11.5s-6.2,7.2-7,11.5
	c-0.6,3.4-3.6,12.4-5.2,12.9c-1.7,0-4.1-3.3-5.5-10.7s-1.1-18.5-1.1-18.6c0-0.4-0.1-0.7-0.3-1c-2.9-4.2-4.5-9.2-4.6-14.4
	c0-7.5,1.7-16.8,10-18.7C21.1,3.1,22,3,22.9,3c2.7,0.1,5.4,0.9,7.7,2.3c1,0.6,2,1,3.2,1.2C34.9,6.3,36,5.9,37,5.3
	c2.3-1.4,5-2.2,7.7-2.3c0.9,0,1.8,0.1,2.7,0.3c8.3,1.9,10,11.3,10,18.7C57.3,27.2,55.7,32.2,52.8,36.5z"/>
</svg>
