<svg xmlns="http://www.w3.org/2000/svg" xmlns:xlink="http://www.w3.org/1999/xlink" version="1.1" x="0px" y="0px" viewBox="0 0 100 125" enable-background="new 0 0 100 100" xml:space="preserve"><path d="M86.5,42.627h-2.522c0-0.063,0.01-0.122,0.01-0.185c0-7.498-2.853-12.272-8.031-13.446  c-0.729-0.165-1.469-0.249-2.199-0.249c-2.535,0-4.505,0.979-5.809,1.626c-0.283,0.141-0.654,0.326-0.861,0.404  c-0.207-0.078-0.578-0.263-0.863-0.404c-1.303-0.647-3.272-1.626-5.807-1.626c-0.731,0-1.471,0.083-2.199,0.249  c-5.179,1.173-8.031,5.948-8.031,13.446c0,0.063,0.01,0.122,0.01,0.185h-1.264c0.002-0.063,0.011-0.122,0.011-0.185  c0-7.498-2.853-12.273-8.032-13.446c-0.727-0.165-1.467-0.249-2.198-0.249c-2.534,0-4.503,0.979-5.808,1.626  c-0.283,0.141-0.655,0.326-0.862,0.404c-0.207-0.078-0.579-0.263-0.863-0.404c-1.304-0.647-3.272-1.626-5.807-1.626  c-0.731,0-1.472,0.083-2.198,0.249c-5.18,1.173-8.032,5.948-8.032,13.446c0,0.063,0.009,0.122,0.011,0.185H12.63  c-0.828,0-1.5,0.671-1.5,1.5s0.672,1.5,1.5,1.5h2.842c0.635,3.132,2.029,5.447,2.676,6.388c-0.022,1.678-0.029,7.055,0.703,11.023  c0.985,5.345,3.016,8.288,5.716,8.288c3.675,0,5.537-9.521,5.556-9.619c0.604-3.158,1.574-4.735,1.883-4.878  c0.387,0.143,1.36,1.721,1.959,4.881c0.019,0.096,1.882,9.616,5.556,9.616c2.7,0,4.73-2.943,5.716-8.288  c0.732-3.969,0.726-9.346,0.703-11.023c0.646-0.941,2.041-3.256,2.676-6.388h1.9c0.635,3.132,2.029,5.447,2.676,6.388  c-0.022,1.677-0.029,7.055,0.703,11.023c0.986,5.345,3.017,8.288,5.717,8.288c3.644,0,5.537-9.524,5.555-9.618  c0.604-3.159,1.574-4.736,1.883-4.88c0.389,0.144,1.361,1.724,1.961,4.882c0.018,0.096,1.881,9.616,5.556,9.616  c2.7,0,4.73-2.943,5.716-8.288c0.732-3.969,0.726-9.347,0.703-11.023c0.646-0.941,2.041-3.256,2.676-6.388H86.5  c0.829,0,1.5-0.671,1.5-1.5S87.329,42.627,86.5,42.627z M18.143,42.442c0-4.21,0.987-9.454,5.694-10.52  c0.511-0.116,1.027-0.174,1.536-0.174c1.829,0,3.295,0.728,4.473,1.313c0.835,0.415,1.494,0.742,2.197,0.742  s1.362-0.328,2.197-0.742c1.178-0.584,2.643-1.313,4.473-1.313c0.509,0,1.025,0.059,1.536,0.174  c4.707,1.066,5.694,6.309,5.694,10.52c0,0.063-0.005,0.123-0.007,0.185H38.58v-1.863c0-1.234-1.013-2.239-2.257-2.239h-8.56  c-1.245,0-2.258,1.004-2.258,2.239v1.863h-7.356C18.147,42.565,18.143,42.505,18.143,42.442z M28.506,45.627h7.074v1.101h-7.074  V45.627z M28.506,42.627v-1.102h7.074v1.102H28.506z M43.255,50.609c-0.219,0.275-0.334,0.62-0.324,0.973  c0.001,0.064,0.158,6.559-0.645,10.913c-0.689,3.733-1.879,5.562-2.606,5.804c-0.95-0.887-2.446-5.482-2.769-7.149  c-0.633-3.337-1.991-7.314-4.868-7.314c-2.868,0-4.229,3.976-4.868,7.312c-0.322,1.67-1.818,6.266-2.768,7.152  c-0.729-0.242-1.918-2.068-2.605-5.805c-0.803-4.348-0.647-10.848-0.646-10.912c0.01-0.35-0.106-0.694-0.322-0.969  c-0.02-0.025-1.543-2.002-2.288-4.986h6.961v1.862c0,1.235,1.013,2.239,2.258,2.239h8.56c1.244,0,2.257-1.004,2.257-2.239v-1.862  h6.961C44.796,48.611,43.273,50.586,43.255,50.609z M53.187,42.442c0-4.21,0.988-9.454,5.695-10.52  c0.51-0.116,1.026-0.174,1.535-0.174c1.83,0,3.295,0.728,4.473,1.313c0.834,0.415,1.494,0.742,2.197,0.742s1.361-0.327,2.196-0.742  c1.177-0.585,2.643-1.313,4.474-1.313c0.509,0,1.025,0.059,1.535,0.174c4.707,1.066,5.695,6.31,5.695,10.52  c0,0.063-0.006,0.123-0.006,0.185h-7.356v-1.863c0-1.234-1.013-2.239-2.258-2.239h-8.561c-1.245,0-2.258,1.004-2.258,2.239v1.863  h-7.356C53.192,42.565,53.187,42.505,53.187,42.442z M63.549,45.627h7.076v1.101h-7.076V45.627z M63.549,42.627v-1.102h7.076v1.102  H63.549z M78.3,50.609c-0.219,0.276-0.334,0.62-0.324,0.973c0.001,0.064,0.157,6.559-0.646,10.913  c-0.688,3.735-1.877,5.562-2.605,5.804c-0.95-0.885-2.445-5.481-2.769-7.149c-0.633-3.337-1.991-7.314-4.868-7.314  c-2.869,0-4.23,3.976-4.869,7.315c-0.32,1.668-1.812,6.26-2.768,7.148c-0.728-0.242-1.917-2.068-2.605-5.804  c-0.803-4.349-0.647-10.849-0.646-10.914c0.01-0.349-0.106-0.693-0.322-0.968c-0.02-0.025-1.543-2.002-2.287-4.986h6.96v1.862  c0,1.235,1.013,2.239,2.258,2.239h8.561c1.245,0,2.258-1.004,2.258-2.239v-1.862h6.96C79.841,48.611,78.318,50.586,78.3,50.609z"/><text x="0" y="115" fill="#000000" font-size="5px" font-weight="bold" font-family="'Helvetica Neue', Helvetica, Arial-Unicode, Arial, Sans-serif">Created by Kaylen Yul Lee</text><text x="0" y="120" fill="#000000" font-size="5px" font-weight="bold" font-family="'Helvetica Neue', Helvetica, Arial-Unicode, Arial, Sans-serif">from the Noun Project</text></svg>