<svg xmlns="http://www.w3.org/2000/svg" xmlns:xlink="http://www.w3.org/1999/xlink" version="1.1" x="0px" y="0px" viewBox="0 0 100 125" enable-background="new 0 0 100 100" xml:space="preserve"><path d="M77,37.132c0-12.107-4.388-19.802-12.355-21.667c-1.122-0.263-2.263-0.396-3.391-0.396c-3.924,0-7.021,1.591-9.071,2.644  c-0.688,0.353-1.544,0.792-1.789,0.821c-0.286-0.029-1.144-0.469-1.833-0.823c-2.05-1.052-5.148-2.642-9.07-2.642  c-1.127,0-2.268,0.133-3.39,0.396c-7.968,1.865-12.355,9.56-12.355,21.667c0,8.102,3.761,14.159,4.907,15.816  c-0.037,2.312-0.107,11.815,1.125,18.722c1.49,8.352,4.551,13.143,8.396,13.143c4.995,0,8.108-15.238,8.136-15.393  c1.041-5.662,2.885-9.047,4.065-9.047c1.176,0,3.017,3.385,4.063,9.047c0.027,0.154,3.141,15.393,8.134,15.393  c1.298,0,3.217-0.567,4.989-3.268c1.869-2.853,2.885-6.945,3.407-9.875c1.233-6.906,1.163-16.41,1.126-18.722  C73.239,51.291,77,45.233,77,37.132z M69.395,51.564c-0.209,0.271-0.318,0.607-0.311,0.951c0.004,0.111,0.261,11.176-1.069,18.627  c-0.669,3.753-1.722,6.863-2.964,8.757c-0.566,0.863-1.448,1.892-2.447,1.912c-1.686-0.568-4.596-9.557-5.217-12.936  c-0.793-4.296-2.76-11.503-7.013-11.503c-4.264,0-6.226,7.209-7.015,11.506c-0.623,3.389-3.553,12.429-5.187,12.934  c-1.704,0-4.134-3.34-5.442-10.67c-1.329-7.445-1.072-18.516-1.068-18.627c0.008-0.342-0.102-0.678-0.309-0.949  c-0.047-0.061-4.608-6.134-4.608-14.435c0-7.479,1.741-16.803,10.039-18.746c0.898-0.21,1.81-0.317,2.706-0.317  c3.197,0,5.801,1.336,7.701,2.312c0.82,0.421,1.49,0.751,2.113,0.951c0.045,0.063,0.068,0.135,0.124,0.191  c1.813,1.847,3.156,3.512,4.012,4.658l-4.54,1.471c-0.461,0.149-0.822,0.512-0.969,0.974c-0.146,0.462-0.06,0.966,0.231,1.354  l5.196,6.912l-5.418,6.938c-0.51,0.653-0.395,1.596,0.258,2.105c0.275,0.214,0.6,0.318,0.923,0.318c0.446,0,0.888-0.198,1.183-0.577  l6.127-7.843c0.417-0.535,0.424-1.283,0.017-1.825l-4.624-6.15l4.467-1.447c0.438-0.142,0.787-0.477,0.945-0.909  c0.16-0.432,0.111-0.913-0.131-1.305c-0.066-0.109-1.492-2.404-4.279-5.449c0.233-0.116,0.469-0.234,0.727-0.367  c1.9-0.976,4.503-2.312,7.701-2.312c0.898,0,1.809,0.106,2.707,0.317C72.258,20.328,74,29.652,74,37.132  C74,45.432,69.439,51.506,69.395,51.564z"/><text x="0" y="115" fill="#000000" font-size="5px" font-weight="bold" font-family="'Helvetica Neue', Helvetica, Arial-Unicode, Arial, Sans-serif">Created by Kaylen Yul Lee</text><text x="0" y="120" fill="#000000" font-size="5px" font-weight="bold" font-family="'Helvetica Neue', Helvetica, Arial-Unicode, Arial, Sans-serif">from the Noun Project</text></svg>