<svg xmlns="http://www.w3.org/2000/svg" xmlns:xlink="http://www.w3.org/1999/xlink" version="1.1" x="0px" y="0px" viewBox="0 0 100 125" enable-background="new 0 0 100 100" xml:space="preserve"><g><path d="M77,37.132c0-12.107-4.388-19.802-12.355-21.667c-1.122-0.263-2.263-0.396-3.39-0.396c-3.923,0-7.021,1.59-9.071,2.643   c-0.688,0.354-1.545,0.793-1.791,0.822c-0.285-0.029-1.143-0.469-1.831-0.822c-2.05-1.052-5.147-2.643-9.07-2.643   c-1.127,0-2.268,0.133-3.39,0.396c-7.969,1.865-12.356,9.56-12.356,21.667c0,8.102,3.761,14.159,4.906,15.816   c-0.038,2.312-0.106,11.815,1.126,18.722c1.49,8.352,4.551,13.143,8.396,13.143c4.994,0,8.107-15.238,8.135-15.393   c1.041-5.662,2.885-9.047,4.064-9.047c1.176,0,3.018,3.385,4.064,9.047c0.027,0.154,3.141,15.393,8.135,15.393   c3.846,0,6.906-4.791,8.396-13.143c1.232-6.906,1.162-16.41,1.125-18.722C73.239,51.291,77,45.233,77,37.132z M69.395,51.564   c-0.209,0.271-0.318,0.607-0.311,0.951c0.004,0.111,0.26,11.182-1.068,18.627c-1.301,7.285-3.709,10.628-5.412,10.669   c-1.686-0.568-4.596-9.557-5.217-12.936c-0.793-4.296-2.76-11.503-7.014-11.503c-4.264,0-6.225,7.209-7.014,11.506   c-0.623,3.389-3.552,12.428-5.186,12.934c-1.705,0-4.135-3.34-5.443-10.67c-1.329-7.445-1.072-18.516-1.07-18.627   c0.009-0.342-0.102-0.678-0.309-0.949c-0.045-0.061-4.606-6.134-4.606-14.435c0-7.479,1.741-16.803,10.04-18.746   c0.898-0.21,1.809-0.317,2.706-0.317c3.197,0,5.8,1.336,7.7,2.312c1.304,0.669,2.246,1.153,3.182,1.153s1.878-0.483,3.182-1.153   c1.9-0.976,4.502-2.312,7.7-2.312c0.897,0,1.808,0.106,2.706,0.317C72.258,20.328,74,29.652,74,37.132   C74,45.432,69.439,51.506,69.395,51.564z"/><path d="M40.383,26.552c-4.215,0-7.643,3.254-7.643,7.253c0,3.999,3.428,7.252,7.643,7.252s7.643-3.253,7.643-7.252   C48.025,29.806,44.598,26.552,40.383,26.552z M40.383,38.058c-2.561,0-4.643-1.908-4.643-4.252c0-2.345,2.082-4.253,4.643-4.253   s4.643,1.908,4.643,4.253C45.025,36.15,42.943,38.058,40.383,38.058z"/><path d="M56.134,34.122c-3.145,0-5.703,2.438-5.703,5.436s2.559,5.437,5.703,5.437s5.703-2.439,5.703-5.437   S59.278,34.122,56.134,34.122z M56.134,41.995c-1.491,0-2.703-1.093-2.703-2.437c0-1.343,1.212-2.436,2.703-2.436   s2.703,1.093,2.703,2.436C58.837,40.902,57.625,41.995,56.134,41.995z"/><path d="M63.111,24.299c-2.699,0-4.896,2.099-4.896,4.679c0,2.581,2.196,4.68,4.896,4.68s4.895-2.099,4.895-4.68   C68.006,26.398,65.811,24.299,63.111,24.299z M63.111,30.658c-1.045,0-1.896-0.753-1.896-1.68c0-0.926,0.851-1.679,1.896-1.679   s1.895,0.753,1.895,1.679C65.006,29.905,64.156,30.658,63.111,30.658z"/></g><text x="0" y="115" fill="#000000" font-size="5px" font-weight="bold" font-family="'Helvetica Neue', Helvetica, Arial-Unicode, Arial, Sans-serif">Created by Kaylen Yul Lee</text><text x="0" y="120" fill="#000000" font-size="5px" font-weight="bold" font-family="'Helvetica Neue', Helvetica, Arial-Unicode, Arial, Sans-serif">from the Noun Project</text></svg>