<svg xmlns="http://www.w3.org/2000/svg" xmlns:xlink="http://www.w3.org/1999/xlink" version="1.1" x="0px" y="0px" viewBox="0 0 100 125" enable-background="new 0 0 100 100" xml:space="preserve"><g><path d="M76.878,37.382c0-12.107-4.389-19.802-12.356-21.667c-1.122-0.263-2.263-0.396-3.39-0.396c-3.923,0-7.021,1.59-9.07,2.643   c-0.689,0.354-1.546,0.793-1.792,0.822c-0.285-0.029-1.143-0.469-1.831-0.822c-2.05-1.052-5.148-2.643-9.07-2.643   c-1.127,0-2.268,0.133-3.39,0.396c-7.968,1.865-12.356,9.56-12.356,21.667c0,8.102,3.762,14.159,4.906,15.816   c-0.037,2.312-0.106,11.815,1.127,18.722c1.49,8.352,4.551,13.143,8.395,13.143c4.996,0,8.107-15.238,8.137-15.392   c1.046-5.663,2.888-9.048,4.063-9.048s3.018,3.385,4.063,9.049c0.029,0.153,3.148,15.391,8.137,15.391   c3.844,0,6.904-4.791,8.395-13.143c1.233-6.906,1.164-16.41,1.127-18.722C73.116,51.541,76.878,45.483,76.878,37.382z    M38.05,82.063c-1.703,0-4.133-3.34-5.441-10.67c-0.976-5.463-1.098-12.871-1.092-16.477c0.689,0.258,0.935,0.66,1.334,1.367   c0.521,0.921,1.232,2.182,3.135,2.797c1.9,0.613,3.217,0.01,4.178-0.432c0.782-0.358,1.215-0.557,2.002-0.303   c0.787,0.255,1.02,0.668,1.442,1.417c0.372,0.657,0.85,1.485,1.78,2.131c-1.087,2.315-1.762,5.124-2.152,7.235   C42.612,72.518,39.685,81.557,38.05,82.063z M50.25,57.623c-1.288,0-2.364,0.668-3.264,1.709c-0.298-0.249-0.501-0.575-0.767-1.045   c-0.52-0.92-1.231-2.181-3.132-2.795c-1.903-0.616-3.218-0.012-4.178,0.431c-0.782,0.358-1.212,0.559-2.002,0.302   c-0.788-0.254-1.021-0.668-1.445-1.417c-0.521-0.921-1.232-2.181-3.134-2.796c-0.334-0.108-0.677-0.087-0.982,0.027   c-0.039-0.074-0.066-0.155-0.117-0.223c-0.046-0.061-4.607-6.134-4.607-14.435c0-7.479,1.742-16.804,10.04-18.746   c0.898-0.21,1.81-0.317,2.706-0.317c3.197,0,5.8,1.336,7.7,2.312c1.304,0.669,2.246,1.153,3.182,1.153   c0.937,0,1.878-0.483,3.181-1.153c1.9-0.976,4.504-2.312,7.701-2.312c0.896,0,1.808,0.106,2.706,0.317   c8.298,1.942,10.04,11.267,10.04,18.746c0,7.488-3.702,13.147-4.461,14.229c-0.141-0.051-0.287-0.108-0.446-0.174   c-0.954-0.397-2.26-0.94-4.008-0.194c-1.747,0.747-2.257,2.066-2.628,3.03c-0.316,0.82-0.455,1.115-1.01,1.353   s-0.863,0.132-1.674-0.205c-0.953-0.397-2.26-0.941-4.006-0.194c-1.746,0.746-2.254,2.066-2.626,3.029   c-0.058,0.151-0.113,0.284-0.17,0.416C52.095,58.022,51.237,57.623,50.25,57.623z M67.892,71.393   c-1.3,7.286-3.708,10.629-5.41,10.669c-1.684-0.567-4.595-9.556-5.218-12.936c-0.429-2.318-1.203-5.479-2.489-7.902   c0.022-0.024,0.05-0.043,0.071-0.069c0.508-0.611,0.767-1.281,0.974-1.82c0.315-0.818,0.452-1.113,1.006-1.35   c0.555-0.236,0.863-0.132,1.673,0.205c0.954,0.398,2.26,0.942,4.006,0.195c1.747-0.747,2.257-2.066,2.63-3.031   c0.316-0.818,0.453-1.114,1.009-1.352c0.556-0.24,0.864-0.133,1.675,0.205c0.342,0.143,0.729,0.298,1.166,0.412   C68.995,58.1,68.896,65.772,67.892,71.393z"/><circle cx="34.912" cy="63.229" r="1.625"/><circle cx="40.159" cy="66.479" r="1.625"/><circle cx="36.537" cy="73.479" r="1.625"/><circle cx="64.16" cy="63.229" r="1.625"/><circle cx="62.535" cy="71.229" r="1.625"/></g><text x="0" y="115" fill="#000000" font-size="5px" font-weight="bold" font-family="'Helvetica Neue', Helvetica, Arial-Unicode, Arial, Sans-serif">Created by Kaylen Yul Lee</text><text x="0" y="120" fill="#000000" font-size="5px" font-weight="bold" font-family="'Helvetica Neue', Helvetica, Arial-Unicode, Arial, Sans-serif">from the Noun Project</text></svg>