<svg xmlns="http://www.w3.org/2000/svg" xmlns:xlink="http://www.w3.org/1999/xlink" version="1.1" x="0px" y="0px" viewBox="0 0 100 125" enable-background="new 0 0 100 100" xml:space="preserve"><path d="M77,37.132c0-12.107-4.388-19.802-12.355-21.667c-1.122-0.263-2.263-0.396-3.39-0.396c-3.924,0-7.021,1.59-9.072,2.643  c-0.688,0.353-1.544,0.793-1.79,0.822c-0.285-0.029-1.143-0.469-1.831-0.822c-2.05-1.052-5.148-2.643-9.07-2.643  c-1.127,0-2.268,0.133-3.39,0.396c-7.968,1.865-12.356,9.56-12.356,21.667c0,8.102,3.761,14.159,4.906,15.816  c-0.037,2.312-0.107,11.815,1.126,18.722c1.49,8.352,4.551,13.143,8.396,13.143c4.982,0,8.107-15.236,8.137-15.393  c1.046-5.662,2.887-9.047,4.063-9.047c1.18,0,3.022,3.385,4.063,9.049c0.027,0.154,3.153,15.391,8.136,15.391  c3.846,0,6.905-4.791,8.395-13.143c1.233-6.906,1.165-16.41,1.127-18.722C73.239,51.291,77,45.233,77,37.132z M50.373,21.533  c0.936,0,1.877-0.483,3.181-1.152c1.452-0.746,3.316-1.697,5.541-2.106c-0.027,0.113-0.045,0.229-0.045,0.35  c0,4.882-3.893,8.854-8.678,8.854s-8.678-3.972-8.678-8.854c0-0.121-0.018-0.238-0.045-0.351c2.225,0.41,4.09,1.361,5.542,2.106  C48.495,21.05,49.438,21.533,50.373,21.533z M69.395,51.564c-0.209,0.271-0.318,0.607-0.31,0.951  c0.002,0.111,0.259,11.182-1.071,18.627c-1.3,7.285-3.707,10.628-5.41,10.669c-1.681-0.567-4.593-9.557-5.218-12.933  c-0.789-4.297-2.75-11.506-7.013-11.506c-4.254,0-6.22,7.207-7.015,11.504c-0.625,3.391-3.558,12.432-5.186,12.936  c-1.704,0-4.134-3.34-5.442-10.67c-1.329-7.445-1.073-18.516-1.069-18.627c0.008-0.342-0.102-0.678-0.309-0.949  c-0.047-0.061-4.607-6.134-4.607-14.435c0-7.479,1.742-16.804,10.04-18.746c0.666-0.156,1.337-0.235,2.005-0.276  c-0.059,0.161-0.096,0.333-0.096,0.515c0,6.536,5.238,11.854,11.678,11.854S62.05,25.161,62.05,18.625  c0-0.182-0.037-0.354-0.096-0.515c0.669,0.041,1.34,0.12,2.007,0.276C72.259,20.328,74,29.652,74,37.132  C74,45.432,69.438,51.506,69.395,51.564z"/><text x="0" y="115" fill="#000000" font-size="5px" font-weight="bold" font-family="'Helvetica Neue', Helvetica, Arial-Unicode, Arial, Sans-serif">Created by Kaylen Yul Lee</text><text x="0" y="120" fill="#000000" font-size="5px" font-weight="bold" font-family="'Helvetica Neue', Helvetica, Arial-Unicode, Arial, Sans-serif">from the Noun Project</text></svg>