<svg xmlns="http://www.w3.org/2000/svg" xmlns:xlink="http://www.w3.org/1999/xlink" version="1.1" x="0px" y="0px" viewBox="0 0 100 125" enable-background="new 0 0 100 100" xml:space="preserve"><path d="M52.598,46.435h-0.009V35.258c0-0.371-0.138-0.729-0.386-1.004l-7.876-8.735l7.947-10.259  c0.508-0.655,0.388-1.597-0.267-2.104c-0.655-0.507-1.598-0.388-2.104,0.268l-8.716,11.25c-0.445,0.574-0.415,1.384,0.071,1.923  l8.33,9.238v10.601h-0.081c-1.876,0-3.401,1.526-3.401,3.402v35.813c0,1.876,1.525,3.401,3.401,3.401h3.09  c1.876,0,3.402-1.525,3.402-3.401V49.837C56,47.961,54.474,46.435,52.598,46.435z M49.508,49.436h3.09  c0.218,0,0.402,0.184,0.402,0.401v3.518h-3.894v-3.518C49.106,49.619,49.29,49.436,49.508,49.436z M52.598,86.051h-3.09  c-0.218,0-0.401-0.184-0.401-0.401V56.354H53v29.295C53,85.867,52.815,86.051,52.598,86.051z"/><text x="0" y="115" fill="#000000" font-size="5px" font-weight="bold" font-family="'Helvetica Neue', Helvetica, Arial-Unicode, Arial, Sans-serif">Created by Kaylen Yul Lee</text><text x="0" y="120" fill="#000000" font-size="5px" font-weight="bold" font-family="'Helvetica Neue', Helvetica, Arial-Unicode, Arial, Sans-serif">from the Noun Project</text></svg>