<svg xmlns="http://www.w3.org/2000/svg" xmlns:xlink="http://www.w3.org/1999/xlink" version="1.1" x="0px" y="0px" viewBox="0 0 100 125" enable-background="new 0 0 100 100" xml:space="preserve"><g><path d="M58.758,41.123c-0.006-0.005-0.013-0.007-0.019-0.012c0.065-0.435,0.11-0.876,0.11-1.329c0-0.904-0.138-1.776-0.388-2.599   c1.787-2.6,3.546-6.708,3.742-10.693c0.182-3.698-0.556-7.298-2.076-10.146c-0.742-1.681-1.903-1.913-2.519-1.891   c-1.706,0.045-3.247,1.926-4.58,5.591c-1.251,3.437-2.57,7.864-3.119,9.747c-0.549-1.883-1.868-6.31-3.119-9.747   c-1.333-3.665-2.874-5.546-4.58-5.591c-0.64-0.025-1.776,0.21-2.519,1.891c-1.521,2.849-2.258,6.448-2.076,10.147   c0.196,3.984,1.955,8.093,3.742,10.693c-0.25,0.823-0.388,1.695-0.388,2.599c0,0.454,0.045,0.896,0.11,1.331   c-0.005,0.004-0.011,0.006-0.016,0.01c-5.163,5.149-8.245,14.742-8.245,25.661c0,5.483,0.799,10.804,2.309,15.388   c0.476,1.443,1.482,2.614,2.836,3.299c0.805,0.406,1.664,0.611,2.556,0.611c0.604,0,1.205-0.097,1.786-0.288   c1.444-0.476,2.616-1.485,3.301-2.843c0.683-1.356,0.796-2.896,0.319-4.335c-1.136-3.459-1.736-7.55-1.736-11.832   c0-10.073,3.207-16.366,5.229-17.967c0.041-0.032,0.064-0.079,0.099-0.116c0.131,0.006,0.26,0.02,0.393,0.02   s0.262-0.014,0.393-0.02c0.034,0.038,0.057,0.083,0.098,0.116c2.021,1.602,5.229,7.896,5.229,17.968   c0,4.284-0.602,8.376-1.739,11.831c-0.98,2.976,0.643,6.196,3.621,7.18c0.578,0.189,1.177,0.285,1.779,0.285   c2.461,0,4.631-1.57,5.397-3.907C66.2,77.582,67,72.262,67,66.784C67,55.864,63.919,46.271,58.758,41.123z M55.848,21.068   c0.652-1.793,1.261-2.792,1.651-3.279c1.257,2.371,1.863,5.404,1.709,8.553c-0.136,2.745-1.187,5.637-2.376,7.791   c-1.088-1.33-2.55-2.341-4.224-2.873C52.955,30.056,54.472,24.853,55.848,21.068z M40.612,26.342   c-0.154-3.149,0.452-6.182,1.709-8.553c0.391,0.488,0.999,1.486,1.651,3.279c1.377,3.786,2.894,8.989,3.239,10.192   c-1.674,0.531-3.136,1.543-4.224,2.873C41.799,31.979,40.748,29.087,40.612,26.342z M41.19,66.784   c0,4.599,0.652,9.014,1.888,12.771c0.225,0.682,0.171,1.408-0.151,2.049c-0.322,0.64-0.875,1.116-1.558,1.341   c-0.684,0.224-1.413,0.171-2.052-0.152c-0.639-0.321-1.114-0.876-1.339-1.558c-1.412-4.285-2.158-9.282-2.158-14.45   c0-9.409,2.373-17.656,6.398-22.471c0.923,1.561,2.303,2.815,3.959,3.58C43.578,51.187,41.19,57.856,41.19,66.784z M43.971,39.782   c0-3.275,2.665-5.939,5.94-5.939c3.274,0,5.938,2.665,5.938,5.939s-2.664,5.939-5.938,5.939   C46.636,45.721,43.971,43.057,43.971,39.782z M61.839,81.235c-0.362,1.104-1.387,1.845-2.548,1.845   c-0.285,0-0.569-0.046-0.842-0.135c-1.405-0.465-2.173-1.986-1.709-3.392c1.236-3.751,1.89-8.167,1.89-12.77   c0-8.927-2.388-15.597-4.987-18.89c1.656-0.765,3.038-2.021,3.961-3.583C61.628,49.125,64,57.374,64,66.784   C64,71.946,63.253,76.943,61.839,81.235z"/><circle cx="49.909" cy="39.713" r="1.89"/></g><text x="0" y="115" fill="#000000" font-size="5px" font-weight="bold" font-family="'Helvetica Neue', Helvetica, Arial-Unicode, Arial, Sans-serif">Created by Kaylen Yul Lee</text><text x="0" y="120" fill="#000000" font-size="5px" font-weight="bold" font-family="'Helvetica Neue', Helvetica, Arial-Unicode, Arial, Sans-serif">from the Noun Project</text></svg>