<svg xmlns="http://www.w3.org/2000/svg" xmlns:xlink="http://www.w3.org/1999/xlink" version="1.1" x="0px" y="0px" viewBox="0 0 100 125" enable-background="new 0 0 100 100" xml:space="preserve"><path d="M61.5,28.212h-5.835v-10.23h1.864c0.828,0,1.5-0.671,1.5-1.5v-4.41c0-0.829-0.672-1.5-1.5-1.5H42.65  c-0.828,0-1.5,0.671-1.5,1.5v4.41c0,0.829,0.672,1.5,1.5,1.5h1.865v10.23h-5.834c-0.828,0-1.5,0.671-1.5,1.5v4.41  c0,0.829,0.672,1.5,1.5,1.5h2.239v34.932c0,0.828,0.672,1.5,1.5,1.5h3.557v4.444c0,0.829,0.672,1.5,1.5,1.5h1.112v11.366  c0,0.829,0.672,1.5,1.5,1.5s1.5-0.671,1.5-1.5V77.999h1.113c0.828,0,1.5-0.671,1.5-1.5v-4.444h3.558c0.828,0,1.5-0.672,1.5-1.5  V35.623H61.5c0.828,0,1.5-0.671,1.5-1.5v-4.41C63,28.884,62.328,28.212,61.5,28.212z M44.15,13.572h11.879v1.41H44.15V13.572z   M47.516,18.174h5.149v10.039h-5.149V18.174z M51.203,74.999h-2.226v-2.944h2.226V74.999z M56.261,39.525h-3.918  c-0.828,0-1.5,0.671-1.5,1.5s0.672,1.5,1.5,1.5h3.918v3.903h-7.177c-0.828,0-1.5,0.671-1.5,1.5s0.672,1.5,1.5,1.5h7.177v2.369  h-3.918c-0.828,0-1.5,0.672-1.5,1.5c0,0.829,0.672,1.5,1.5,1.5h3.918v3.137h-7.177c-0.828,0-1.5,0.671-1.5,1.5  c0,0.828,0.672,1.5,1.5,1.5h7.177v2.369h-3.918c-0.828,0-1.5,0.671-1.5,1.5c0,0.828,0.672,1.5,1.5,1.5h3.918v2.752h-12.34V35.623  h12.34V39.525z M60,32.623h-2.239h-15.34h-2.239v-1.41h5.834h8.149H60V32.623z"/><text x="0" y="115" fill="#000000" font-size="5px" font-weight="bold" font-family="'Helvetica Neue', Helvetica, Arial-Unicode, Arial, Sans-serif">Created by Kaylen Yul Lee</text><text x="0" y="120" fill="#000000" font-size="5px" font-weight="bold" font-family="'Helvetica Neue', Helvetica, Arial-Unicode, Arial, Sans-serif">from the Noun Project</text></svg>