<svg xmlns="http://www.w3.org/2000/svg" xmlns:xlink="http://www.w3.org/1999/xlink" version="1.1" x="0px" y="0px" viewBox="0 0 100 125" enable-background="new 0 0 100 100" xml:space="preserve"><path d="M62.572,84.813c-4.981,0-8.106-15.236-8.136-15.391c-1.046-5.664-2.888-9.049-4.063-9.049s-3.018,3.385-4.063,9.047  c-0.029,0.154-3.141,15.393-8.137,15.393c-3.844,0-6.904-4.791-8.395-13.143c-1.233-6.906-1.164-16.41-1.127-18.722  c-1.145-1.657-4.906-7.715-4.906-15.816c0-12.107,4.389-19.802,12.356-21.667c1.122-0.263,2.263-0.396,3.39-0.396  c3.922,0,7.021,1.59,9.07,2.643c0.688,0.354,1.546,0.793,1.831,0.822c0.246-0.029,1.103-0.469,1.792-0.822  c2.05-1.052,5.147-2.643,9.07-2.643c1.127,0,2.268,0.133,3.39,0.396C72.612,17.33,77,25.024,77,37.132  c0,8.102-3.761,14.159-4.906,15.816c0.038,2.312,0.106,11.815-1.125,18.722C69.478,80.021,66.417,84.813,62.572,84.813z   M39.491,18.069c-0.896,0-1.808,0.106-2.706,0.317c-8.298,1.942-10.04,11.267-10.04,18.746c0,8.3,4.562,14.374,4.607,14.435  c0.207,0.271,0.316,0.607,0.309,0.949c-0.003,0.111-0.26,11.182,1.07,18.627c1.309,7.33,3.738,10.67,5.441,10.67  c1.635-0.506,4.563-9.545,5.186-12.934c0.795-4.299,2.761-11.506,7.015-11.506s6.22,7.207,7.014,11.502  c0.624,3.38,3.537,12.369,5.218,12.937c1.701-0.041,4.109-3.384,5.411-10.669c1.328-7.445,1.071-18.516,1.069-18.627  c-0.009-0.344,0.101-0.68,0.31-0.951C69.438,51.506,74,45.432,74,37.132c0-7.48-1.741-16.804-10.039-18.746  c-0.898-0.21-1.81-0.317-2.706-0.317c-3.197,0-5.801,1.336-7.701,2.312c-1.303,0.669-2.244,1.153-3.181,1.153  c-0.936,0-1.878-0.483-3.182-1.153C45.291,19.405,42.688,18.069,39.491,18.069z"/><text x="0" y="115" fill="#000000" font-size="5px" font-weight="bold" font-family="'Helvetica Neue', Helvetica, Arial-Unicode, Arial, Sans-serif">Created by Kaylen Yul Lee</text><text x="0" y="120" fill="#000000" font-size="5px" font-weight="bold" font-family="'Helvetica Neue', Helvetica, Arial-Unicode, Arial, Sans-serif">from the Noun Project</text></svg>