<svg xmlns="http://www.w3.org/2000/svg" xmlns:xlink="http://www.w3.org/1999/xlink" version="1.1" x="0px" y="0px" viewBox="0 0 100 125" enable-background="new 0 0 100 100" xml:space="preserve"><g><path d="M50.591,34.028c-0.022-0.031-0.047-0.061-0.071-0.089l-5.239-6.097c0.027-0.111,0.046-0.225,0.046-0.345v-9.942   c0-1.774-1.532-3.217-3.416-3.217H36.79c-1.885,0-3.417,1.443-3.417,3.217v9.942c0,0.12,0.019,0.234,0.046,0.345l-5.24,6.096   c-0.025,0.03-0.049,0.06-0.072,0.091c-0.744,1.022-1.304,2.756-1.303,3.981l-1.699,45.313c0,1.774,1.408,3.217,3.14,3.217h22.21   c1.731,0,3.141-1.442,3.14-3.271l-1.697-45.206C51.896,36.783,51.334,35.048,50.591,34.028z M36.257,17.555   c0-0.132,0.212-0.333,0.533-0.333h5.121c0.32,0,0.532,0.201,0.532,0.333v8.5h-6.185V17.555z M30.41,35.768l5.54-6.444   c0.101-0.118,0.173-0.25,0.231-0.386h6.34c0.058,0.136,0.129,0.267,0.23,0.385l5.538,6.445c0.376,0.544,0.724,1.642,0.725,2.35   l1.445,38.497c-0.194-0.097-0.41-0.157-0.642-0.157H28.884c-0.232,0-0.448,0.061-0.643,0.157l1.445-38.551   C29.687,37.411,30.034,36.314,30.41,35.768z M50.454,83.657h-22.21c-0.12,0-0.255-0.143-0.256-0.279l0.159-4.244   c0.217,0.13,0.467,0.209,0.737,0.209h20.932c0.271,0,0.52-0.079,0.737-0.209l0.157,4.19C50.71,83.515,50.576,83.657,50.454,83.657z   "/><path d="M73.558,15.994h-9.942c-0.657-0.981-1.776-1.63-3.045-1.63c-2.021,0-3.665,1.645-3.665,3.666v22.132   c0,0.298,0.035,0.593,0.104,0.871l3.17,12.957v29.366c0,2.021,1.645,3.666,3.666,3.666s3.666-1.645,3.666-3.666V53.549   c0-0.296-0.035-0.591-0.105-0.872l-3.17-12.958v-0.326h9.321c0.797,0,1.442-0.646,1.442-1.442v-5.129v-5.129v-5.127v-5.129   C75,16.639,74.354,15.994,73.558,15.994z M72.115,26.25h-7.879v-2.243h7.879V26.25z M64.236,29.135h7.879v2.245h-7.879V29.135z    M72.115,21.123h-7.879v-2.245h7.879V21.123z M64.605,53.369c0.015,0.059,0.022,0.118,0.022,0.18v29.807   c0,0.431-0.352,0.781-0.782,0.781s-0.781-0.351-0.781-0.781V53.816L59.811,40.34c-0.015-0.056-0.021-0.116-0.021-0.179V18.029   c0-0.431,0.351-0.781,0.781-0.781c0.379,0,0.679,0.275,0.751,0.632v4.685v5.127v5.129v5.129c0,0.1,0.011,0.198,0.03,0.293v1.649   L64.605,53.369z M72.115,36.508h-7.879v-2.245h7.879V36.508z"/></g><text x="0" y="115" fill="#000000" font-size="5px" font-weight="bold" font-family="'Helvetica Neue', Helvetica, Arial-Unicode, Arial, Sans-serif">Created by Kaylen Yul Lee</text><text x="0" y="120" fill="#000000" font-size="5px" font-weight="bold" font-family="'Helvetica Neue', Helvetica, Arial-Unicode, Arial, Sans-serif">from the Noun Project</text></svg>