<svg xmlns="http://www.w3.org/2000/svg" viewBox="0 0 67.54 69.74"><g id="Camada_2" data-name="Camada 2"><g id="Camada_1-2" data-name="Camada 1"><path d="M66.51,16.23c-3-.74-3.4-.94-4.12-4.67a1.36,1.36,0,0,0-2.66,0c-.72,3.72-1.08,3.93-4.12,4.66a1.36,1.36,0,0,0-1,1.31,1.34,1.34,0,0,0,1,1.31c3,.74,3.4.95,4.12,4.67a1.36,1.36,0,0,0,1.33,1.09,1.34,1.34,0,0,0,1.32-1.09c.73-3.72,1.09-3.93,4.13-4.67a1.34,1.34,0,0,0,1-1.31A1.36,1.36,0,0,0,66.51,16.23Zm-5.45,2.71a4.51,4.51,0,0,0-1.35-1.4,4.48,4.48,0,0,0,1.35-1.39,4.48,4.48,0,0,0,1.35,1.39A4.51,4.51,0,0,0,61.06,18.94Z"/><path d="M46.51,23.13c-5-1.21-5.55-1.84-6.65-7.48a1.39,1.39,0,0,0-2.74,0c-1.1,5.64-1.66,6.27-6.65,7.48a1.4,1.4,0,0,0,0,2.72c5,1.21,5.55,1.84,6.65,7.48a1.4,1.4,0,0,0,2.74,0c1.1-5.64,1.66-6.27,6.65-7.48a1.4,1.4,0,0,0,0-2.72Zm-8,4.78a6.58,6.58,0,0,0-3.27-3.42,6.58,6.58,0,0,0,3.27-3.42,6.58,6.58,0,0,0,3.27,3.42A6.58,6.58,0,0,0,38.49,27.91Z"/><path d="M40.9.4A14.47,14.47,0,0,0,37.51,0a19.45,19.45,0,0,0-9.07,2.64,11.3,11.3,0,0,1-1.79.83,9.36,9.36,0,0,1-1.83-.83A19.45,19.45,0,0,0,15.75,0a14.47,14.47,0,0,0-3.39.4C4.39,2.26,0,10,0,22.06A28.92,28.92,0,0,0,4.91,37.88C4.87,40.19,4.8,49.69,6,56.6c1.49,8.35,4.55,13.14,8.4,13.14,5,0,8.1-15.23,8.13-15.39,1.05-5.66,2.89-9.05,4.07-9.05s3,3.39,4.06,9.05c0,.16,3.15,15.39,8.14,15.39,3.84,0,6.9-4.79,8.39-13.14,1.23-6.91,1.16-16.41,1.13-18.72a29.06,29.06,0,0,0,4.9-15.82C53.25,10,48.87,2.26,40.9.4Zm4.75,36.09a1.51,1.51,0,0,0-.31,1c0,.11.26,11.18-1.07,18.62S40.56,66.7,38.86,66.74c-1.68-.57-4.6-9.56-5.22-12.94-.79-4.29-2.76-11.5-7-11.5s-6.22,7.21-7,11.51C19,57.2,16.06,66.24,14.43,66.74c-1.71,0-4.14-3.34-5.45-10.67S7.91,37.56,7.92,37.45a1.59,1.59,0,0,0-.31-1A26.13,26.13,0,0,1,3,22.06C3,14.58,4.74,5.26,13,3.32A11.94,11.94,0,0,1,15.75,3a16.57,16.57,0,0,1,7.7,2.31,7.49,7.49,0,0,0,3.18,1.15,7.53,7.53,0,0,0,3.18-1.15A16.53,16.53,0,0,1,37.51,3a11.4,11.4,0,0,1,2.71.32c8.29,1.94,10,11.26,10,18.74A26.16,26.16,0,0,1,45.65,36.49Z"/></g></g></svg>